HIERARCHY
ROOT Hips
{
  OFFSET -32.5998 29.0326 120.673
  CHANNELS 6 Xposition Yposition Zposition Zrotation Xrotation Yrotation
  JOINT LeftUpLeg
  {
    OFFSET 8.64259 1.95398 -2.38835
    CHANNELS 3 Zrotation Xrotation Yrotation
    JOINT LeftLeg
    {
      OFFSET 43.7702 0 0
      CHANNELS 3 Zrotation Xrotation Yrotation
      JOINT LeftFoot
      {
        OFFSET 40.6238 0 0
        CHANNELS 3 Zrotation Xrotation Yrotation
        JOINT LeftToeBase
        {
          OFFSET 12.7242 0 0
          CHANNELS 3 Zrotation Xrotation Yrotation
          End Site
          {
            OFFSET 0 0 0
          }
        }
      }
    }
  }
  JOINT RightUpLeg
  {
    OFFSET -8.2249 1.95398 -2.59336
    CHANNELS 3 Zrotation Xrotation Yrotation
    JOINT RightLeg
    {
      OFFSET 43.5653 0 0
      CHANNELS 3 Zrotation Xrotation Yrotation
      JOINT RightFoot
      {
        OFFSET 40.6238 0 0
        CHANNELS 3 Zrotation Xrotation Yrotation
        JOINT RightToeBase
        {
          OFFSET 12.7242 0 0
          CHANNELS 3 Zrotation Xrotation Yrotation
          End Site
          {
            OFFSET 0 0 0
          }
        }
      }
    }
  }
  JOINT Spine
  {
    OFFSET 0.165834 0.87714 6.61349
    CHANNELS 3 Zrotation Xrotation Yrotation
    JOINT Spine1
    {
      OFFSET 7.38963 1.71661e-005 0
      CHANNELS 3 Zrotation Xrotation Yrotation
      JOINT Spine2
      {
        OFFSET 11.9445 1.14441e-005 0
        CHANNELS 3 Zrotation Xrotation Yrotation
        JOINT Spine3
        {
          OFFSET 14.7254 4.19617e-005 0
          CHANNELS 3 Zrotation Xrotation Yrotation
          JOINT Spine4
          {
            OFFSET 10.9679 0 0
            CHANNELS 3 Zrotation Xrotation Yrotation
            JOINT RightShoulder
            {
              OFFSET 2.46616 -1.6653 3.69651
              CHANNELS 3 Zrotation Xrotation Yrotation
              JOINT RightArm
              {
                OFFSET 13.0012 0 0
                CHANNELS 3 Zrotation Xrotation Yrotation
                JOINT RightForeArm
                {
                  OFFSET 28.7848 1.62311e-005 0
                  CHANNELS 3 Zrotation Xrotation Yrotation
                  JOINT RightHand
                  {
                    OFFSET 26.5688 1.62095e-005 0
                    CHANNELS 3 Zrotation Xrotation Yrotation
                    End Site
                    {
                      OFFSET 0 0 0
                    }
                  }
                }
              }
            }
            JOINT LeftShoulder
            {
              OFFSET 2.38034 -1.29275 -3.7523
              CHANNELS 3 Zrotation Xrotation Yrotation
              JOINT LeftArm
              {
                OFFSET 16.3182 6.07031e-005 0
                CHANNELS 3 Zrotation Xrotation Yrotation
                JOINT LeftForeArm
                {
                  OFFSET 27.0901 0 0
                  CHANNELS 3 Zrotation Xrotation Yrotation
                  JOINT LeftHand
                  {
                    OFFSET 24.5451 1.51738e-005 0
                    CHANNELS 3 Zrotation Xrotation Yrotation
                    End Site
                    {
                      OFFSET 0 0 0
                    }
                  }
                }
              }
            }
            JOINT Neck
            {
              OFFSET 5.0226 -0.0266342 0
              CHANNELS 3 Zrotation Xrotation Yrotation
              JOINT Head
              {
                OFFSET 6.69364 2.86102e-005 0
                CHANNELS 3 Zrotation Xrotation Yrotation
                End Site
                {
                  OFFSET 0 0 0
                }
              }
            }
          }
        }
      }
    }
  }
}
MOTION
Frames:	10
Frame Time:	0.0416667
126.939 89.7326 137.259 -68.8561 -49.5807 -71.1736 -173.344 45.9089 108.063 -47.413 31.3997 -1.92749 71.2713 7.78349 1.24231 38.3279 2.6304 3.75457 166.884 41.4718 73.9554 -56.9386 -2.80004 1.66352 74.758 -8.62581 -2.68267 25.267 -0.726842 8.397 0.96322 9.15161 -90.0136 8.57259 1.91604 -0.148622 -3.09696 1.90765 -0.232826 -25.6431 1.87209 0.434314 -5.63047 1.87209 0.434323 87.0248 -28.6847 -113.223 35.5134 9.86676 12.3019 -53.9324 -6.06099 -81.9887 -12.5443 -0.898489 3.23492 -89.568 -42.1074 77.5943 -2.4998 19.5612 -52.4148 35.4996 -19.6218 -98.0744 -1.39477 -0.0938556 -4.75885 31.9182 -0.937581 -7.89779 -5.09725 2.38899 1.0074 
124.193 88.0177 135.424 -74.4968 -45.5779 -76.2793 -171.645 43.65 111.202 -50.5553 29.3816 -1.40675 73.0195 9.18502 1.39468 40.1384 2.64796 6.40914 166.992 43.7707 68.529 -57.1399 -2.11023 1.10773 73.8533 -8.33054 -4.25051 22.8928 0.292812 7.90832 0.738729 9.27171 -90.2523 8.33428 1.36314 -0.581281 -3.33614 1.33625 -0.64072 -25.8767 1.47483 -0.144648 -5.86409 1.47481 -0.14465 89.0889 -27.7839 -109.495 21.4832 29.2952 24.2662 -45.2183 -10.2121 -83.3107 -20.0699 -1.9398 6.14861 -89.5565 -40.9511 77.3245 -7.54356 16.001 -53.9171 31.0037 -18.7073 -101.856 -2.59808 -0.0869861 -6.41603 30.0649 1.06267 -8.89066 -5.16904 4.51905 3.10886 
120.93 85.9274 133.407 -79.6223 -40.0441 -80.4905 -169.723 40.1286 115.332 -52.7633 26.9226 -0.542328 74.7663 9.94292 -1.1177 44.5244 3.51059 10.666 166.957 48.1811 64.8682 -58.128 1.46959 1.46008 74.1904 -8.29708 -3.96409 20.0692 1.12171 8.67029 0.449224 9.29436 -90.4144 8.2866 0.714174 -0.861957 -3.38443 0.675552 -0.892552 -25.92 0.940221 -0.60746 -5.90732 0.940197 -0.607469 90.8144 -26.234 -106.569 7.5768 31.5919 33.2607 -34.3931 -11.7697 -76.0171 -23.1775 -1.62481 2.90997 -88.3784 -36.9095 78.3168 -13.4876 11.6278 -55.1386 29.5544 -18.0621 -105.36 -3.66795 -0.0684651 -6.42 28.9691 3.9848 -9.75482 -7.34287 7.41994 5.3394 
116.157 84.7832 130.802 -82.7666 -32.2026 -84.1696 -165.843 33.2758 118.481 -49.1471 23.8673 -0.770215 74.4702 9.4883 -2.41533 46.9427 4.08416 13.4621 168.021 53.601 63.7947 -59.0654 -2.07041 1.917 72.6077 -7.65706 -5.46204 19.8589 1.33642 8.25597 0.298113 9.15096 -90.5221 8.57267 0.363815 -1.05487 -3.09867 0.317057 -1.06986 -25.6316 0.664032 -0.896771 -5.61892 0.664021 -0.896777 92.03 -22.5851 -105.435 0.837914 26.7238 37.2105 -35.92 -12.4402 -73.4562 -18.6327 -0.864967 0.147446 -87.3402 -33.9279 79.43 -16.2818 7.10535 -52.4829 27.9678 -17.7037 -109.404 -4.5506 -0.0408311 -6.9245 26.5176 9.56211 -4.66686 -6.96576 10.7318 4.55122 
109.469 85.4718 127.223 -84.9754 -24.8277 -88.9299 -162.756 21.7672 119.356 -37.9751 20.9282 -0.624239 60.2069 0.517791 -5.29234 57.7131 9.51388 13.1355 167.107 56.186 65.2525 -59.2058 -8.81538 2.89402 71.1056 -6.63938 -4.83547 23.1989 0.546172 6.65844 0.0263763 8.99393 -90.3454 8.88522 -0.101099 -0.676727 -2.7859 -0.130817 -0.671628 -25.3197 0.106969 -0.675824 -5.30702 0.10696 -0.675835 91.4684 -20.3584 -107.687 -3.38777 24.7932 40.5049 -37.5216 -11.5231 -76.7398 -16.9989 -0.837935 0.53675 -86.4033 -32.0301 80.7085 -15.8334 4.11355 -45.1341 24.9087 -16.6506 -111.869 -3.65558 -0.0551147 -7.53088 23.5428 15.7623 1.78937 -7.67354 14.4001 4.52543 
101.146 86.9657 122.569 -84.8545 -17.2444 -93.171 -163.424 6.77059 117.739 -22.3661 21.9944 2.13534 44.4881 -7.83444 -4.58754 55.0294 9.04866 8.81336 163.781 56.1777 70.4738 -59.3338 -12.4997 4.51083 66.8301 -3.0025 -0.900341 26.6443 -0.921003 7.17546 -0.124267 8.57859 -90.0924 9.7161 -0.289488 -0.159448 -1.95482 -0.29623 -0.146562 -24.4901 -0.228189 -0.239083 -4.47741 -0.228184 -0.239081 91.663 -20.1103 -107.353 -3.63099 25.4148 38.4569 -42.2072 -9.72759 -83.1667 -15.5758 -0.832036 0.985085 -86.0126 -34.2377 81.9311 -10.0096 3.73032 -32.8737 21.689 -15.6159 -112.703 -2.88501 -0.0746111 -7.63397 19.0588 21.601 11.8255 -9.12066 17.3841 1.40963 
92.7203 87.4673 116.846 -82.0099 -9.60862 -94.2897 -169.072 1.24506 114.315 -26.8915 26.4291 7.69932 51.9848 -3.5617 4.55249 14.7338 -6.42288 0.132135 160.907 53.8037 79.5006 -61.6248 -11.3025 6.09647 71.3525 -6.02554 -1.69468 25.3161 -0.214005 6.39607 0.149747 8.13199 -90.2127 10.6103 0.200454 -0.43936 -1.06066 0.18093 -0.447762 -23.5955 0.323248 -0.358797 -3.58291 0.323218 -0.358814 91.0522 -21.7704 -107.983 -2.51966 24.4465 32.2841 -40.216 -8.31067 -83.5098 -17.6412 -1.26425 3.17749 -85.6391 -35.7761 82.9217 -8.16687 8.56583 -23.8886 23.0481 -16.5189 -109.985 -1.18868 -0.101783 -5.60413 15.7385 25.833 19.7244 -9.12885 19.9658 0.152013 
86.1594 86.1048 110.829 -80.8139 -0.711181 -96.0611 -172.433 2.64641 109.623 -41.8731 20.6359 8.58988 59.7886 1.57916 6.9447 19.7871 -1.57854 -5.00163 162.831 52.7827 86.473 -68.5645 -10.3444 4.15765 79.5471 -11.8314 -3.75584 26.4817 -0.808221 6.97757 0.69931 8.13719 -90.2802 10.6036 1.26391 -0.670054 -1.06699 1.23322 -0.725048 -23.6068 1.40687 -0.259147 -3.59412 1.40687 -0.259157 89.4181 -23.1585 -110.952 1.04408 26.2097 21.8082 -37.8151 -9.69206 -78.3043 -19.7665 -1.4585 3.40567 -86.0098 -41.7278 83.3776 -6.96594 11.9705 -13.9091 24.8673 -17.382 -107.625 1.42416 -0.126335 -5.20632 14.5901 28.8408 24.0828 -7.21317 22.119 -0.603885 
79.7387 85.0098 104.329 -80.9546 7.45329 -95.1704 -174.734 10.026 107.105 -61.6131 19.7698 7.69846 67.033 5.89089 9.18208 26.3001 0.121087 -2.64935 163.926 47.2087 93.5993 -71.5415 -9.17385 3.46369 86.4976 -16.4563 -2.40555 26.6078 -1.04237 7.7087 1.393 8.46246 -90.458 9.96238 2.56813 -1.11919 -1.70661 2.51642 -1.23118 -24.2616 2.78569 -0.295078 -4.24899 2.78569 -0.295087 87.8641 -23.5199 -114.132 7.94836 32.9636 10.2688 -35.2378 -10.0625 -77.033 -17.6591 -0.913107 0.816665 -86.6378 -48.5667 83.5413 -10.642 8.35913 -2.40117 27.0488 -15.0962 -102.378 5.67818 0.0770859 -1.98831 16.2528 31.4309 25.9849 -8.1671 23.827 0.312563 
73.2031 84.7374 98.0667 -79.7284 11.5173 -96.46 -177.339 23.703 102.252 -74.9638 10.2918 5.60754 73.3428 9.30098 9.62595 23.8512 -0.334954 -3.71308 163.637 40.9974 95.9974 -70.8376 -10.834 3.84003 91.7352 -21.1299 -2.87548 26.8685 -1.29344 8.31789 1.79711 8.558 -90.3298 9.77433 3.43304 -0.927047 -1.89251 3.38892 -1.0774 -24.4643 3.55273 0.148881 -4.45165 3.55273 0.148876 86.907 -24.5003 -115.628 15.3754 35.2375 -3.42591 -34.3013 -8.90726 -80.444 -17.8325 -0.691285 -0.733143 -85.4705 -50.3925 85.5829 -19.2667 0.520938 8.73683 28.6439 -9.25461 -92.5953 6.95947 0.128782 -1.69018 17.147 32.9374 27.7027 -6.95116 24.7021 -0.556681 
